<?xml version="1.0" standalone="no"?><!DOCTYPE svg PUBLIC "-//W3C//DTD SVG 1.1//EN" "http://www.w3.org/Graphics/SVG/1.1/DTD/svg11.dtd" [<!ENTITY nbsp " ">]><svg data-noselect="" viewBox="157.6851806640625 234.57591629028002 365.6399999999975 164.60889816284498" width="400" height="300" preserveAspectRatio="xMidYMid meet" version="1.1" xmlns="http://www.w3.org/2000/svg" style="background: rgba(255, 255, 255, 0);"><defs><pattern id="wm_tile" x="0" y="0" width="38%" height="85%" patternunits="objectBoundingBox"><g id="wm_lm" transform="translate(-188.000000, -323.000000)" fill="#cccccc"><text font-size="10" transform="translate(270.490979, 373.245789) rotate(-390.000000) translate(-270.490979, -373.245789)"><tspan x="187.490979" opacity=".5" y="378.245789"> .</tspan></text></g></pattern></defs><rect x="157.6851806640625" y="234.57591629028002" width="100%" height="100%" style="fill: url(#wm_tile);"></rect><defs></defs> <g id="shape_p7cq4kc1mh" transform="translate(347.68518066406,264.57591629028) rotate(0,138.82,43.00825) scale(1,1)" filter="" style="cursor: move; opacity: 1;"><g><svg xmlns="http://www.w3.org/2000/svg" version="1.1" xmlns:xlink="http://www.w3.org/1999/xlink" overflow="hidden" style="top:0; left: 0" width="145.64000000000001" height="86.0165" viewBox="0 0 140.64000000000001 86.0165" preserveAspectRatio="none" data-parent="shape_p7cq4kc1mh"><rect fill="rgba(0,0,0,0)" width="145.64000000000001" height="86.0165"></rect> <rect opacity="0"></rect><g transform="translate(0 0)" data-width="135.64000000000001"><path fill="#2921B7" d="M11.29 0.14L1.49 0.14L8.09-20.24L17.89-20.24L11.29 0.14ZM8.09-23.57L1.49-39.62L6.32-39.62L1.49-51.33L11.29-51.33L17.89-35.36L13.06-35.36L17.89-23.57L8.09-23.57ZM30.74-47.93L63.76-47.93L63.76-47.78L63.83-47.78L63.83-7.95Q63.83-6.32 63.23-4.90Q62.62-3.48 61.56-2.41Q60.49-1.35 59.07-0.75Q57.65-0.14 56.02-0.14L56.02-0.14L45.09-0.14L48.85-6.96L51.76-6.96Q52.68-6.96 53.32-7.60Q53.96-8.24 53.96-9.16L53.96-9.16L53.96-41.82L28.05-41.82L22.44-41.82L18.18-41.82L22.44-51.33L32.31-51.33L30.74-47.93ZM43.45-6.32L28.12-6.32L21.73-6.32L20.02-6.32L20.02-17.96L28.12-17.96L28.12-12.43L31.38-12.43L31.38-21.37L20.02-21.37L20.02-27.55L31.38-27.55L31.38-31.95L30.03-31.95L23.36-31.95L20.16-31.95L22.65-39.97L32.45-39.97L31.88-38.06L51.12-38.06L51.12-31.95L39.90-31.95L39.90-27.55L51.26-27.55L51.26-21.37L39.90-21.37L39.90-12.43L40.97-12.43Q41.89-12.43 42.53-13.06Q43.17-13.70 43.17-14.63L43.17-14.63L43.17-17.47L51.26-17.47L51.26-14.06Q51.26-12.43 50.66-11.04Q50.06-9.66 48.99-8.59Q47.93-7.53 46.51-6.92Q45.09-6.32 43.45-6.32L43.45-6.32Z" transform="translate(5 60.989000000000004)" data-glyph-w="65.32000000000001"></path><path fill="#2921B7" d="M47.50-0.14L37.42-0.14L37.42-19.03L22.08-19.03L22.08-25.77L37.42-25.77L37.42-27.90L47.50-27.90L47.50-25.77L62.91-25.77L62.91-19.03L47.50-19.03L47.50-0.14ZM31.45-0.07L22.08-0.07L24.99-16.61L34.36-16.61L31.45-0.07ZM63.62-0.07L54.24-0.07L51.33-16.61L60.71-16.61L63.62-0.07ZM10.51-51.26L21.30-51.26L15.76-38.84L18.67-38.84L18.67 0.07L8.45 0.07L8.45-31.17L1.63-31.17L10.51-51.26ZM63.33-51.26L63.33-37.13Q63.33-35.50 62.73-34.08Q62.13-32.66 61.06-31.60Q60.00-30.53 58.58-29.93Q57.16-29.32 55.59-29.32L55.59-29.32L21.94-29.32L21.94-51.26L63.33-51.26ZM53.53-38.48L53.53-44.38L31.74-44.38L31.74-36.28L51.33-36.28Q52.26-36.28 52.90-36.92Q53.53-37.56 53.53-38.48L53.53-38.48Z" transform="translate(70.32000000000001 60.989000000000004)" data-glyph-w="65.32000000000001"></path></g></svg></g> <!----></g><g id="shape_CmKqzpHpMa" transform="translate(347.68518066406,336) rotate(0,101.81640625,16.592407226562) scale(1,1)" filter="" style="cursor: move; opacity: 1;"><g><svg xmlns="http://www.w3.org/2000/svg" version="1.1" xmlns:xlink="http://www.w3.org/1999/xlink" overflow="hidden" style="top:0; left: 0" width="119.18701171875" height="33.184814453125" viewBox="0 0 114.18701171875 33.184814453125" preserveAspectRatio="none" data-parent="shape_CmKqzpHpMa"><rect fill="rgba(0,0,0,0)" width="119.18701171875" height="33.184814453125"></rect> <rect opacity="0"></rect><g transform="translate(0 0)" data-width="109.18701171875"><path fill="#2921B7" d="M6.42 0L6.42 0L6.42-15.80L6.42-15.80L0.35-15.80L0.35-15.80L0.35-16.87L0.35-17.94L0.35-17.94L14.92-17.94L14.92-17.94L14.92-16.87L14.92-15.80L14.92-15.80L8.85-15.80L8.85-15.80L8.85 0L8.85 0L7.64 0L6.42 0Z" transform="translate(5 23.193359375)" data-glyph-w="15.27099609375"></path><path fill="#2921B7" d="M0.35 0L0.35 0L7.13-17.94L8.51-17.94L9.90-17.94L16.35 0L16.35 0L15.04 0L13.73 0L13.73 0L11.91-5.20L11.91-5.20L4.74-5.20L4.74-5.20L2.86 0L2.86 0L1.61 0L0.35 0ZM8.40-15.31L8.40-15.31L5.52-7.35L5.52-7.35L11.17-7.35L11.17-7.35L8.40-15.31L8.40-15.31Z" transform="translate(20.27099609375 23.193359375)" data-glyph-w="16.6748046875"></path><path fill="#2921B7" d="M9.72 0.49L9.72 0.49Q5.81 0.49 3.39-2.12Q0.98-4.72 0.98-8.96L0.98-8.96Q0.98-13.21 3.39-15.82Q5.81-18.43 9.72-18.43L9.72-18.43Q13.65-18.43 16.06-15.82Q18.47-13.21 18.47-8.96L18.47-8.96Q18.47-4.72 16.06-2.12Q13.65 0.49 9.72 0.49L9.72 0.49ZM9.72-1.66L9.72-1.66Q12.52-1.66 14.25-3.67Q15.97-5.69 15.97-8.96L15.97-8.96Q15.97-12.24 14.25-14.26Q12.52-16.28 9.72-16.28L9.72-16.28Q6.92-16.28 5.20-14.26Q3.48-12.24 3.48-8.96L3.48-8.96Q3.48-5.69 5.20-3.67Q6.92-1.66 9.72-1.66L9.72-1.66Z" transform="translate(36.94580078125 23.193359375)" data-glyph-w="19.44580078125"></path><path fill="#2921B7" d="M1.86 0L1.86 0L1.86-17.94L1.86-17.94L3.06-17.94L3.06-17.94L9.74-17.94Q12.04-17.94 13.44-16.77Q14.84-15.59 14.84-13.66L14.84-13.66Q14.84-11.43 13.18-10.17L13.18-10.17Q12.81-9.88 12.37-9.67L12.37-9.67L12.37-9.67Q13.26-9.35 13.92-8.87L13.92-8.87Q15.67-7.59 15.67-5.32L15.67-5.32Q15.67-2.82 13.96-1.41Q12.24 0 9.19 0L9.19 0L3.06 0L3.06 0L1.86 0ZM4.28-15.87L4.28-15.87L4.28-10.30L4.28-10.30L8.62-10.30Q10.60-10.30 11.51-11.02Q12.43-11.73 12.43-13.27L12.43-13.27Q12.43-14.61 11.58-15.24Q10.74-15.87 8.94-15.87L8.94-15.87L4.28-15.87ZM4.28-8.34L4.28-8.34L4.28-2.08L4.28-2.08L9.23-2.08Q11.32-2.08 12.29-2.88Q13.26-3.69 13.26-5.42L13.26-5.42Q13.26-6.93 12.24-7.64Q11.23-8.34 9.06-8.34L9.06-8.34L4.28-8.34Z" transform="translate(56.3916015625 23.193359375)" data-glyph-w="16.6748046875"></path><path fill="#2921B7" d="M0.35 0L0.35 0L7.13-17.94L8.51-17.94L9.90-17.94L16.35 0L16.35 0L15.04 0L13.73 0L13.73 0L11.91-5.20L11.91-5.20L4.74-5.20L4.74-5.20L2.86 0L2.86 0L1.61 0L0.35 0ZM8.40-15.31L8.40-15.31L5.52-7.35L5.52-7.35L11.17-7.35L11.17-7.35L8.40-15.31L8.40-15.31Z" transform="translate(73.06640625 23.193359375)" data-glyph-w="16.6748046875"></path><path fill="#2921B7" d="M9.72 0.49L9.72 0.49Q5.81 0.49 3.39-2.12Q0.98-4.72 0.98-8.96L0.98-8.96Q0.98-13.21 3.39-15.82Q5.81-18.43 9.72-18.43L9.72-18.43Q13.65-18.43 16.06-15.82Q18.47-13.21 18.47-8.96L18.47-8.96Q18.47-4.72 16.06-2.12Q13.65 0.49 9.72 0.49L9.72 0.49ZM9.72-1.66L9.72-1.66Q12.52-1.66 14.25-3.67Q15.97-5.69 15.97-8.96L15.97-8.96Q15.97-12.24 14.25-14.26Q12.52-16.28 9.72-16.28L9.72-16.28Q6.92-16.28 5.20-14.26Q3.48-12.24 3.48-8.96L3.48-8.96Q3.48-5.69 5.20-3.67Q6.92-1.66 9.72-1.66L9.72-1.66Z" transform="translate(89.7412109375 23.193359375)" data-glyph-w="19.44580078125"></path></g></svg></g> <!----></g><g id="shape_sm1OM5ozLy" transform="translate(187.6851806640625,269.87446212768555) rotate(0,80,46.358966012286324) scale(1,1)" filter="" style="cursor: move; opacity: 1;"><g><rect fill="rgba(0,0,0,0)" width="180" height="112.71793202457265" x="-10" y="-10"></rect><svg version="1.1" id="图层_1" xmlns="http://www.w3.org/2000/svg" xmlns:xlink="http://www.w3.org/1999/xlink" x="0px" y="0px" viewBox="41.5 66.10000610351562 117 67.79998779296875" style="enable-background:new 0 0 200 200;" xml:space="preserve" width="160" height="92.71793202457265" preserveAspectRatio="none" data-parent="shape_sm1OM5ozLy">
<style type="text/css">
	.st0{fill:#0F0964;}
	.st1{clip-path:url(#SVGID_2__CkuzFrrBKe);fill:none;}
	.st2{fill:#FFF100;}
</style>
<g>
	<ellipse class="" cx="116.8" cy="100" rx="40.9" ry="33.2" fill="#0F0964"></ellipse>
	<g>
		<defs>
			<ellipse id="SVGID_1__TNxVyAe35w" cx="116.8" cy="100" rx="41.7" ry="33.9"></ellipse>
		</defs>
		<clipPath id="SVGID_2__CkuzFrrBKe">
			<use xlink:href="#SVGID_1__TNxVyAe35w" style="" overflow="visible"></use>
		</clipPath>
		<ellipse class="" cx="116.8" cy="100" rx="41.7" ry="33.9" clip-path="url(#SVGID_2__CkuzFrrBKe)" fill="none"></ellipse>
	</g>
	<polygon class="" points="135.1,116.3 135.8,115.7 112.3,115.7 112.3,115.2 136.5,115.2 137.5,114.4 114.2,114.4 114.2,113.9 
		138.1,113.9 139.1,113.1 116,113.1 116,112.6 139.8,112.6 140.7,111.8 117.8,111.8 117.8,111.3 141.4,111.3 142.3,110.5 
		119.6,110.5 119.6,110 143,110 143.9,109.3 121.4,109.3 121.4,108.7 144.6,108.7 145.5,108 123.2,108 123.2,107.4 146.2,107.4 
		147.1,106.7 125,106.7 125,106.1 147.8,106.1 148.7,105.4 126.8,105.4 126.8,104.8 149.4,104.8 150.3,104.1 128.6,104.1 
		128.6,103.5 151,103.5 152,102.8 130.4,102.8 130.4,102.3 152.6,102.3 153.6,101.5 132.2,101.5 132.2,101 154.3,101 155.2,100.2 
		134,100.2 134,99.7 155.9,99.7 156.8,98.9 135.8,98.9 135.8,98.4 157.5,98.4 158.5,97.5 96.5,97.5 112.1,83.7 80,83.7 41.5,116.3 	
		" fill="#FFF100"></polygon>
</g>
</svg></g> <!----></g>  <!----></svg>